<?xml version="1.0" encoding="utf-8"?>
<svg viewBox="54.289 192.184 360 219.052" xmlns="http://www.w3.org/2000/svg" xmlns:bx="https://boxy-svg.com">
  <g transform="matrix(1, 0, 0, 1, -5.710949, 0)" bx:origin="0.5 0.499641">
    <rect x="60" y="200" width="150" height="150" style="fill: rgb(49, 212, 49);"/>
    <path d="M 148.052 291.718 L 128.782 291.718 L 128.782 329.288 L 106.812 329.288 L 106.812 222.648 L 148.412 222.648 C 156.419 222.648 163.462 224.111 169.542 227.038 C 175.622 229.971 180.299 234.135 183.572 239.528 C 186.845 244.921 188.482 251.061 188.482 257.948 C 188.482 268.401 184.905 276.641 177.752 282.668 C 170.599 288.701 160.699 291.718 148.052 291.718 Z M 128.782 240.448 L 128.782 273.918 L 148.412 273.918 C 154.225 273.918 158.659 272.551 161.712 269.818 C 164.759 267.085 166.282 263.178 166.282 258.098 C 166.282 252.871 164.745 248.648 161.672 245.428 C 158.599 242.201 154.352 240.541 148.932 240.448 L 128.782 240.448 Z" transform="matrix(0.9020739793777466, 0, 0, 1, 9.205052375793457, 5.330183982849121)" style="fill: rgb(255, 255, 255); white-space: pre;"/>
  </g>
  <g transform="matrix(1, 0, 0, 0.999722, 20.959051, 0.737984)">
    <rect x="243.33" y="200.466" width="150" height="150" style="fill: rgb(247, 57, 57);"/>
    <path d="M 193.532 222.648 L 193.532 329.288 L 171.562 329.288 L 128.782 259.118 L 128.782 329.288 L 106.812 329.288 L 106.812 222.648 L 128.782 222.648 L 171.632 292.958 L 171.632 222.648 L 193.532 222.648 Z" transform="matrix(0.9020739793777466, 0, 0, 1, 183.9676055908203, 4.655936241149902)" style="fill: rgb(255, 255, 255); white-space: pre;"/>
  </g>
  <rect x="38.461" y="51.406" width="15" height="150" style="fill: rgb(117, 117, 117);" transform="matrix(1, -0.000034, 0.000034, 1, 175.826724, 148.595827)"/>
  <rect x="38.461" y="51.406" width="15" height="150" style="fill: rgb(117, 117, 117);" transform="matrix(1, -0.000034, 0.000034, 1, 200.826297, 148.595827)"/>
  <path d="M 109.388 396.209 L 109.388 364.649 L 124.428 364.649 C 127.955 364.649 130.608 365.549 132.388 367.349 C 134.168 369.142 135.058 371.679 135.058 374.959 C 135.058 378.239 134.131 380.792 132.278 382.619 C 130.418 384.439 127.648 385.349 123.968 385.349 L 116.058 385.349 L 116.058 396.209 L 109.388 396.209 Z M 116.058 379.699 L 123.838 379.699 C 125.278 379.699 126.381 379.282 127.148 378.449 C 127.915 377.622 128.298 376.459 128.298 374.959 C 128.298 373.486 127.915 372.342 127.148 371.529 C 126.381 370.716 125.278 370.309 123.838 370.309 L 116.058 370.309 L 116.058 379.699 ZM 146.119 396.759 C 144.253 396.759 142.536 396.269 140.969 395.289 C 139.403 394.309 138.619 392.529 138.619 389.949 C 138.619 386.856 139.893 384.656 142.439 383.349 C 144.986 382.049 148.589 381.399 153.249 381.399 L 153.249 379.699 C 153.249 378.626 153.013 377.796 152.539 377.209 C 152.066 376.629 151.169 376.339 149.849 376.339 C 148.436 376.339 147.429 376.552 146.829 376.979 C 146.236 377.412 145.939 377.919 145.939 378.499 L 145.939 379.189 L 139.869 379.189 C 139.836 379.002 139.819 378.666 139.819 378.179 C 139.819 376.152 140.716 374.526 142.509 373.299 C 144.303 372.072 146.686 371.459 149.659 371.459 C 152.973 371.459 155.449 372.136 157.089 373.489 C 158.729 374.836 159.549 376.782 159.549 379.329 L 159.549 389.999 C 159.549 390.552 159.703 390.959 160.009 391.219 C 160.316 391.479 160.699 391.609 161.159 391.609 L 162.449 391.609 L 162.449 396.029 C 161.469 396.516 160.259 396.759 158.819 396.759 C 157.559 396.759 156.509 396.482 155.669 395.929 C 154.823 395.382 154.246 394.602 153.939 393.589 L 153.669 393.589 C 152.776 394.629 151.756 395.419 150.609 395.959 C 149.456 396.492 147.959 396.759 146.119 396.759 Z M 148.099 391.789 C 149.879 391.789 151.183 391.292 152.009 390.299 C 152.836 389.299 153.249 387.972 153.249 386.319 L 153.249 385.579 C 147.763 385.579 145.019 386.806 145.019 389.259 C 145.019 390.026 145.273 390.639 145.779 391.099 C 146.286 391.559 147.059 391.789 148.099 391.789 ZM 176.095 396.759 C 172.721 396.759 170.075 396.062 168.155 394.669 C 166.241 393.276 165.285 391.412 165.285 389.079 L 165.325 388.529 L 171.445 388.529 L 171.445 388.849 C 171.478 389.922 171.961 390.696 172.895 391.169 C 173.828 391.649 174.971 391.889 176.325 391.889 C 177.578 391.889 178.651 391.719 179.545 391.379 C 180.431 391.039 180.875 390.486 180.875 389.719 C 180.875 388.866 180.421 388.222 179.515 387.789 C 178.615 387.362 177.198 386.932 175.265 386.499 C 173.271 386.039 171.645 385.572 170.385 385.099 C 169.131 384.626 168.045 383.882 167.125 382.869 C 166.205 381.856 165.745 380.506 165.745 378.819 C 165.745 376.459 166.731 374.642 168.705 373.369 C 170.685 372.096 173.238 371.459 176.365 371.459 C 179.278 371.459 181.685 372.049 183.585 373.229 C 185.491 374.409 186.445 376.012 186.445 378.039 L 186.395 379.099 L 180.275 379.099 L 180.275 378.819 C 180.275 378.026 179.898 377.412 179.145 376.979 C 178.398 376.552 177.395 376.339 176.135 376.339 C 174.881 376.339 173.885 376.506 173.145 376.839 C 172.411 377.179 172.045 377.656 172.045 378.269 C 172.045 379.036 172.465 379.602 173.305 379.969 C 174.151 380.336 175.508 380.706 177.375 381.079 C 179.435 381.539 181.108 381.999 182.395 382.459 C 183.681 382.919 184.801 383.669 185.755 384.709 C 186.701 385.749 187.175 387.159 187.175 388.939 C 187.175 394.152 183.481 396.759 176.095 396.759 ZM 201.97 396.759 C 198.597 396.759 195.95 396.062 194.03 394.669 C 192.117 393.276 191.16 391.412 191.16 389.079 L 191.2 388.529 L 197.32 388.529 L 197.32 388.849 C 197.353 389.922 197.837 390.696 198.77 391.169 C 199.703 391.649 200.847 391.889 202.2 391.889 C 203.453 391.889 204.527 391.719 205.42 391.379 C 206.307 391.039 206.75 390.486 206.75 389.719 C 206.75 388.866 206.297 388.222 205.39 387.789 C 204.49 387.362 203.073 386.932 201.14 386.499 C 199.147 386.039 197.52 385.572 196.26 385.099 C 195.007 384.626 193.92 383.882 193 382.869 C 192.08 381.856 191.62 380.506 191.62 378.819 C 191.62 376.459 192.607 374.642 194.58 373.369 C 196.56 372.096 199.113 371.459 202.24 371.459 C 205.153 371.459 207.56 372.049 209.46 373.229 C 211.367 374.409 212.32 376.012 212.32 378.039 L 212.27 379.099 L 206.15 379.099 L 206.15 378.819 C 206.15 378.026 205.773 377.412 205.02 376.979 C 204.273 376.552 203.27 376.339 202.01 376.339 C 200.757 376.339 199.76 376.506 199.02 376.839 C 198.287 377.179 197.92 377.656 197.92 378.269 C 197.92 379.036 198.34 379.602 199.18 379.969 C 200.027 380.336 201.383 380.706 203.25 381.079 C 205.31 381.539 206.983 381.999 208.27 382.459 C 209.557 382.919 210.677 383.669 211.63 384.709 C 212.577 385.749 213.05 387.159 213.05 388.939 C 213.05 394.152 209.357 396.759 201.97 396.759 ZM 242.933 396.759 C 238.793 396.759 235.71 395.732 233.683 393.679 C 231.663 391.626 230.653 388.436 230.653 384.109 C 230.653 379.789 231.663 376.599 233.683 374.539 C 235.71 372.486 238.793 371.459 242.933 371.459 C 247.073 371.459 250.163 372.486 252.203 374.539 C 254.243 376.599 255.263 379.789 255.263 384.109 C 255.263 388.436 254.243 391.626 252.203 393.679 C 250.163 395.732 247.073 396.759 242.933 396.759 Z M 242.933 391.609 C 244.987 391.609 246.473 391.019 247.393 389.839 C 248.313 388.659 248.773 386.872 248.773 384.479 L 248.773 383.739 C 248.773 381.352 248.313 379.569 247.393 378.389 C 246.473 377.202 244.987 376.609 242.933 376.609 C 240.88 376.609 239.4 377.202 238.493 378.389 C 237.587 379.569 237.133 381.352 237.133 383.739 L 237.133 384.479 C 237.133 386.872 237.587 388.659 238.493 389.839 C 239.4 391.019 240.88 391.609 242.933 391.609 ZM 260.579 396.209 L 260.579 372.009 L 265.959 372.009 L 266.459 375.919 L 266.789 375.919 C 267.309 374.539 267.982 373.452 268.809 372.659 C 269.635 371.859 270.725 371.459 272.079 371.459 C 272.965 371.459 273.762 371.599 274.469 371.879 L 274.469 377.759 L 272.719 377.759 C 270.665 377.759 269.179 378.319 268.259 379.439 C 267.339 380.559 266.879 382.256 266.879 384.529 L 266.879 396.209 L 260.579 396.209 ZM 292.57 396.209 L 292.57 364.649 L 299.06 364.649 L 311.2 381.809 C 311.567 382.329 312.18 383.356 313.04 384.889 L 313.27 384.759 L 313.13 382.089 L 313.13 364.649 L 319.62 364.649 L 319.62 396.209 L 313.13 396.209 L 300.94 378.909 C 300.36 378.082 299.763 377.072 299.15 375.879 L 298.92 376.019 C 299.013 377.332 299.06 378.252 299.06 378.779 L 299.06 396.209 L 292.57 396.209 ZM 337.031 396.759 C 332.891 396.759 329.808 395.732 327.781 393.679 C 325.761 391.626 324.751 388.436 324.751 384.109 C 324.751 379.789 325.761 376.599 327.781 374.539 C 329.808 372.486 332.891 371.459 337.031 371.459 C 341.171 371.459 344.261 372.486 346.301 374.539 C 348.341 376.599 349.361 379.789 349.361 384.109 C 349.361 388.436 348.341 391.626 346.301 393.679 C 344.261 395.732 341.171 396.759 337.031 396.759 Z M 337.031 391.609 C 339.084 391.609 340.571 391.019 341.491 389.839 C 342.411 388.659 342.871 386.872 342.871 384.479 L 342.871 383.739 C 342.871 381.352 342.411 379.569 341.491 378.389 C 340.571 377.202 339.084 376.609 337.031 376.609 C 334.978 376.609 333.498 377.202 332.591 378.389 C 331.684 379.569 331.231 381.352 331.231 383.739 L 331.231 384.479 C 331.231 386.872 331.684 388.659 332.591 389.839 C 333.498 391.019 334.978 391.609 337.031 391.609 ZM 361.156 396.759 C 358.89 396.759 357.266 396.146 356.286 394.919 C 355.3 393.692 354.806 392.146 354.806 390.279 L 354.806 377.169 L 351.916 377.169 L 351.916 372.009 L 354.946 372.009 L 356.006 365.209 L 361.116 365.209 L 361.116 372.009 L 365.296 372.009 L 365.296 377.169 L 361.116 377.169 L 361.116 389.629 C 361.116 390.949 361.773 391.609 363.086 391.609 L 365.296 391.609 L 365.296 396.029 C 364.776 396.209 364.126 396.376 363.346 396.529 C 362.56 396.682 361.83 396.759 361.156 396.759 Z" transform="matrix(1.0777720212936401, 0, 0, 1, -19.75132942199707, 5.330183982849121)" style="fill: rgb(51, 51, 51); white-space: pre;"/>
  <rect x="2651.397" y="19.504" width="320" height="2" style="fill: rgb(0, 0, 0);" transform="matrix(1, -0.000014, 0.000014, 1, -2577.151123, 341.537048)"/>
  <rect x="16.571" y="487.598" width="2" height="50" style="fill: rgb(0, 0, 0);" transform="matrix(1, -0.000014, 0.000014, 1, 50.422173, -127.597733)"/>
  <rect x="16.571" y="487.598" width="2" height="50" style="fill: rgb(0, 0, 0);" transform="matrix(1, -0.000014, 0.000014, 1, 382.42218, -127.597733)"/>
  <rect x="2651.397" y="19.504" width="320" height="2" style="fill: rgb(0, 0, 0);" transform="matrix(1, -0.000014, 0.000014, 1, -2577.108643, 387.537598)"/>
</svg>