<?xml version="1.0" encoding="UTF-8" standalone="no"?>
<!DOCTYPE svg PUBLIC "-//W3C//DTD SVG 1.1//EN" "http://www.w3.org/Graphics/SVG/1.1/DTD/svg11.dtd">
<svg version="1.1" xmlns="http://www.w3.org/2000/svg" xmlns:xlink="http://www.w3.org/1999/xlink" preserveAspectRatio="xMidYMid meet" viewBox="0 0 640 640" width="640" height="640"><defs><path d="M640 632.95L0 632.95L0 0L640 0L640 632.95Z" id="cEtLzPchC"></path><path d="M640 632.95L0 632.95L0 0L640 0L640 632.95Z" id="a62Zp1xWUQ"></path><path d="M346.67 474.71C346.67 489.21 334.67 501.08 320 501.08C305.33 501.08 293.33 489.21 293.33 474.71C293.33 465.87 293.33 421.96 293.33 342.85C213.33 342.85 168.93 342.85 160 342.85C145.33 342.85 133.33 330.98 133.33 316.47C133.33 301.97 145.33 290.1 160 290.1C168.93 290.1 213.33 290.1 293.33 290.1C293.33 210.98 293.33 167.07 293.33 158.24C293.33 143.73 305.33 131.86 320 131.86C334.67 131.86 346.67 143.73 346.67 158.24C346.67 167.07 346.67 210.98 346.67 290.1C426.67 290.1 471.07 290.1 480 290.1C494.67 290.1 506.67 301.97 506.67 316.47C506.67 330.98 494.67 342.85 480 342.85C462.27 342.85 417.73 342.85 346.67 342.85C346.67 421.96 346.67 465.87 346.67 474.71Z" id="b6zx7BGwmy"></path><path d="M346.67 474.71C346.67 489.21 334.67 501.08 320 501.08C305.33 501.08 293.33 489.21 293.33 474.71C293.33 465.87 293.33 421.96 293.33 342.85C213.33 342.85 168.93 342.85 160 342.85C145.33 342.85 133.33 330.98 133.33 316.47C133.33 301.97 145.33 290.1 160 290.1C168.93 290.1 213.33 290.1 293.33 290.1C293.33 210.98 293.33 167.07 293.33 158.24C293.33 143.73 305.33 131.86 320 131.86C334.67 131.86 346.67 143.73 346.67 158.24C346.67 167.07 346.67 210.98 346.67 290.1C426.67 290.1 471.07 290.1 480 290.1C494.67 290.1 506.67 301.97 506.67 316.47C506.67 330.98 494.67 342.85 480 342.85C462.27 342.85 417.73 342.85 346.67 342.85C346.67 421.96 346.67 465.87 346.67 474.71Z" id="a7gv2cXvv"></path></defs><g><g><g><use xlink:href="#cEtLzPchC" opacity="1" fill="#000000" fill-opacity="0"></use><g><use xlink:href="#cEtLzPchC" opacity="1" fill-opacity="0" stroke="#000000" stroke-width="1" stroke-opacity="0"></use></g></g><g><use xlink:href="#a62Zp1xWUQ" opacity="1" fill="#000000" fill-opacity="0"></use><g><use xlink:href="#a62Zp1xWUQ" opacity="1" fill-opacity="0" stroke="#000000" stroke-width="1" stroke-opacity="0"></use></g></g><g><use xlink:href="#b6zx7BGwmy" opacity="1" fill="#5acb5a" fill-opacity="1"></use><g><use xlink:href="#b6zx7BGwmy" opacity="1" fill-opacity="0" stroke="#000000" stroke-width="1" stroke-opacity="0"></use></g></g><g><use xlink:href="#a7gv2cXvv" opacity="1" fill="#000000" fill-opacity="0"></use><g><use xlink:href="#a7gv2cXvv" opacity="1" fill-opacity="0" stroke="#000000" stroke-width="1" stroke-opacity="0"></use></g></g></g></g></svg>