<?xml version="1.0" standalone="no"?>
<!DOCTYPE svg PUBLIC "-//W3C//DTD SVG 20010904//EN"
 "http://www.w3.org/TR/2001/REC-SVG-20010904/DTD/svg10.dtd">
<svg version="1.0" xmlns="http://www.w3.org/2000/svg"
 width="300.000000pt" height="300.000000pt" viewBox="0 0 300.000000 300.000000"
 preserveAspectRatio="xMidYMid meet">
<metadata>
Created by potrace 1.11, written by Peter Selinger 2001-2013
</metadata>
<g transform="translate(0.000000,300.000000) scale(0.100000,-0.100000)"
fill="#000000" stroke="none">
<path d="M0 1500 l0 -1500 1500 0 1500 0 0 1500 0 1500 -1500 0 -1500 0 0
-1500z m989 669 c185 -29 296 -114 348 -263 27 -78 25 -250 -5 -336 -43 -124
-142 -220 -272 -261 -44 -15 -103 -23 -187 -26 l-123 -6 0 -218 0 -219 -185 0
-185 0 0 670 0 670 273 0 c149 0 301 -5 336 -11z m1366 -466 c212 -408 275
-524 250 -458 -4 11 -10 221 -13 468 l-5 447 132 0 131 0 0 -670 0 -670 -206
2 -205 3 -240 465 c-132 255 -241 465 -242 466 -1 1 0 -209 1 -467 l4 -469
-161 0 -161 0 0 670 0 670 238 0 239 0 238 -457z"/>
<path d="M750 1734 l0 -157 66 6 c70 5 101 21 138 71 30 39 30 154 1 186 -30
34 -77 50 -145 50 l-60 0 0 -156z"/>
</g>
</svg>
